FILE "Tomb Raider II - Starring Lara Croft (Europe) (EDC) (Track 01).bin" BINARY
  TRACK 01 MODE2/2352
    INDEX 01 00:00:00
  TRACK 02 AUDIO
    INDEX 00 23:06:17
    INDEX 01 23:08:17
  TRACK 03 AUDIO
    INDEX 00 24:33:51
    INDEX 01 24:35:51
  TRACK 04 AUDIO
    INDEX 00 26:30:01
    INDEX 01 26:32:01
  TRACK 05 AUDIO
    INDEX 00 28:47:61
    INDEX 01 28:49:61
  TRACK 06 AUDIO
    INDEX 00 28:57:46
    INDEX 01 28:59:46
  TRACK 07 AUDIO
    INDEX 00 29:06:43
    INDEX 01 29:08:43
  TRACK 08 AUDIO
    INDEX 00 29:13:44
    INDEX 01 29:15:44
  TRACK 09 AUDIO
    INDEX 00 29:20:46
    INDEX 01 29:22:46
  TRACK 10 AUDIO
    INDEX 00 29:28:46
    INDEX 01 29:30:46
  TRACK 11 AUDIO
    INDEX 00 29:41:70
    INDEX 01 29:43:70
  TRACK 12 AUDIO
    INDEX 00 29:59:55
    INDEX 01 30:01:55
  TRACK 13 AUDIO
    INDEX 00 30:10:18
    INDEX 01 30:12:18
  TRACK 14 AUDIO
    INDEX 00 30:21:27
    INDEX 01 30:23:27
  TRACK 15 AUDIO
    INDEX 00 30:28:28
    INDEX 01 30:30:28
  TRACK 16 AUDIO
    INDEX 00 30:35:29
    INDEX 01 30:37:29
  TRACK 17 AUDIO
    INDEX 00 30:42:31
    INDEX 01 30:44:31
  TRACK 18 AUDIO
    INDEX 00 30:53:33
    INDEX 01 30:55:33
  TRACK 19 AUDIO
    INDEX 00 31:00:34
    INDEX 01 31:02:34
  TRACK 20 AUDIO
    INDEX 00 31:07:35
    INDEX 01 31:09:35
  TRACK 21 AUDIO
    INDEX 00 31:14:36
    INDEX 01 31:16:36
  TRACK 22 AUDIO
    INDEX 00 31:21:37
    INDEX 01 31:23:37
  TRACK 23 AUDIO
    INDEX 00 31:28:38
    INDEX 01 31:30:38
  TRACK 24 AUDIO
    INDEX 00 31:47:12
    INDEX 01 31:49:12
  TRACK 25 AUDIO
    INDEX 00 31:58:13
    INDEX 01 32:00:13
  TRACK 26 AUDIO
    INDEX 00 32:05:14
    INDEX 01 32:07:14
  TRACK 27 AUDIO
    INDEX 00 32:59:04
    INDEX 01 33:01:04
  TRACK 28 AUDIO
    INDEX 00 34:59:15
    INDEX 01 35:01:15
  TRACK 29 AUDIO
    INDEX 00 36:58:73
    INDEX 01 37:00:73
  TRACK 30 AUDIO
    INDEX 00 39:47:32
    INDEX 01 39:49:32
  TRACK 31 AUDIO
    INDEX 00 42:53:17
    INDEX 01 42:55:17
  TRACK 32 AUDIO
    INDEX 00 43:02:74
    INDEX 01 43:04:74
  TRACK 33 AUDIO
    INDEX 00 43:09:47
    INDEX 01 43:11:47
  TRACK 34 AUDIO
    INDEX 00 43:28:07
    INDEX 01 43:30:07
  TRACK 35 AUDIO
    INDEX 00 44:24:41
    INDEX 01 44:26:41
  TRACK 36 AUDIO
    INDEX 00 44:46:32
    INDEX 01 44:48:32
  TRACK 37 AUDIO
    INDEX 00 47:27:26
    INDEX 01 47:29:26
  TRACK 38 AUDIO
    INDEX 00 47:41:39
    INDEX 01 47:43:39
  TRACK 39 AUDIO
    INDEX 00 47:54:71
    INDEX 01 47:56:71
  TRACK 40 AUDIO
    INDEX 00 48:11:59
    INDEX 01 48:13:59
  TRACK 41 AUDIO
    INDEX 00 48:31:47
    INDEX 01 48:33:47
  TRACK 42 AUDIO
    INDEX 00 49:32:53
    INDEX 01 49:34:53
  TRACK 43 AUDIO
    INDEX 00 50:08:08
    INDEX 01 50:10:08
  TRACK 44 AUDIO
    INDEX 00 50:14:37
    INDEX 01 50:16:37
  TRACK 45 AUDIO
    INDEX 00 50:30:36
    INDEX 01 50:32:36
  TRACK 46 AUDIO
    INDEX 00 50:42:34
    INDEX 01 50:44:34
  TRACK 47 AUDIO
    INDEX 00 50:56:61
    INDEX 01 50:58:61
  TRACK 48 AUDIO
    INDEX 00 51:07:19
    INDEX 01 51:09:19
  TRACK 49 AUDIO
    INDEX 00 53:52:27
    INDEX 01 53:54:27
  TRACK 50 AUDIO
    INDEX 00 55:05:52
    INDEX 01 55:07:52
  TRACK 51 AUDIO
    INDEX 00 55:15:24
    INDEX 01 55:17:24
  TRACK 52 AUDIO
    INDEX 00 55:59:32
    INDEX 01 56:01:32
  TRACK 53 AUDIO
    INDEX 00 56:11:17
    INDEX 01 56:13:17
  TRACK 54 AUDIO
    INDEX 00 57:02:23
    INDEX 01 57:04:23
  TRACK 55 AUDIO
    INDEX 00 60:33:67
    INDEX 01 60:35:67
  TRACK 56 AUDIO
    INDEX 00 64:05:49
    INDEX 01 64:07:49
  TRACK 57 AUDIO
    INDEX 00 65:53:27
    INDEX 01 65:55:27
  TRACK 58 AUDIO
    INDEX 00 66:18:72
    INDEX 01 66:20:72
  TRACK 59 AUDIO
    INDEX 00 66:42:46
    INDEX 01 66:44:46
  TRACK 60 AUDIO
    INDEX 00 67:02:25
    INDEX 01 67:04:25
  TRACK 61 AUDIO
    INDEX 00 69:50:72
    INDEX 01 69:52:72
